HIERARCHY
ROOT hip
{
  OFFSET 0 90.174 2.4664
  CHANNELS 6 Xposition Yposition Zposition Zrotation Xrotation Yrotation
  JOINT abdomen
  {
    OFFSET 0 -1.186 -1.5018
    CHANNELS 6 Xposition Yposition Zposition Zrotation Xrotation Yrotation
    JOINT abdomen2
    {
      OFFSET 0 9.964 0.2134
      CHANNELS 6 Xposition Yposition Zposition Zrotation Xrotation Yrotation
      JOINT chest
      {
        OFFSET 0 13.134 -3.2573
        CHANNELS 6 Xposition Yposition Zposition Zrotation Xrotation Yrotation
        JOINT neck
        {
          OFFSET 0 20.686 -1.6905
          CHANNELS 6 Xposition Yposition Zposition Zrotation Xrotation Yrotation
          JOINT head
          {
            OFFSET 0 7.238 -0.1237
            CHANNELS 6 Xposition Yposition Zposition Zrotation Xrotation Yrotation
            End Site
            {
              OFFSET 0 0 0
            }
          }
        }
        JOINT lCollar
        {
          OFFSET 1.7069 20.075 5.0056
          CHANNELS 6 Xposition Yposition Zposition Zrotation Xrotation Yrotation
          JOINT lShldr
          {
            OFFSET 13.6458 -0.047 -4.849
            CHANNELS 6 Xposition Yposition Zposition Zrotation Xrotation Yrotation
            JOINT lForeArm
            {
              OFFSET 28.3255 -0.9759 2.2888
              CHANNELS 6 Xposition Yposition Zposition Zrotation Xrotation Yrotation
              JOINT lHand
              {
                OFFSET 22.1583 -0.53 10.8316
                CHANNELS 6 Xposition Yposition Zposition Zrotation Xrotation Yrotation
                JOINT lThumb1
                {
                  OFFSET 0.786 0.112 2.5817
                  CHANNELS 6 Xposition Yposition Zposition Zrotation Xrotation Yrotation
                  JOINT lThumb2
                  {
                    OFFSET 0.3601 -0.878 4.2331
                    CHANNELS 6 Xposition Yposition Zposition Zrotation Xrotation Yrotation
                    JOINT lThumb2_End
                    {
                      OFFSET 1.8127 -1.216 2.2227
                      CHANNELS 6 Xposition Yposition Zposition Zrotation Xrotation Yrotation
                      End Site
                      {
                        OFFSET 0.0181 -0.0122 0.0222
                      }
                    }
                  }
                }
                JOINT lCarpal1
                {
                  OFFSET 0.9571 1.114 1.7695
                  CHANNELS 6 Xposition Yposition Zposition Zrotation Xrotation Yrotation
                  JOINT lIndex1
                  {
                    OFFSET 4.1246 0.487 4.1451
                    CHANNELS 6 Xposition Yposition Zposition Zrotation Xrotation Yrotation
                    JOINT lIndex2
                    {
                      OFFSET 3.4052 -1.454 2.7682
                      CHANNELS 6 Xposition Yposition Zposition Zrotation Xrotation Yrotation
                      JOINT lIndex2_End
                      {
                        OFFSET 1.4531 -1.795 1.2713
                        CHANNELS 6 Xposition Yposition Zposition Zrotation Xrotation Yrotation
                        End Site
                        {
                          OFFSET 0.0145 -0.0179 0.0127
                        }
                      }
                    }
                  }
                  JOINT lMid1
                  {
                    OFFSET 5.6954 0.21 2.1184
                    CHANNELS 6 Xposition Yposition Zposition Zrotation Xrotation Yrotation
                    JOINT lMid2
                    {
                      OFFSET 3.9766 -1.54 2.3863
                      CHANNELS 6 Xposition Yposition Zposition Zrotation Xrotation Yrotation
                      JOINT lMid2_End
                      {
                        OFFSET 1.4042 -1.926 1.125
                        CHANNELS 6 Xposition Yposition Zposition Zrotation Xrotation Yrotation
                        End Site
                        {
                          OFFSET 0.014 -0.0193 0.0113
                        }
                      }
                    }
                  }
                }
                JOINT lCarpal2
                {
                  OFFSET 2.0956 0.66 -0.3894
                  CHANNELS 6 Xposition Yposition Zposition Zrotation Xrotation Yrotation
                  JOINT lRing1
                  {
                    OFFSET 5.0395 -0.09 2.4971
                    CHANNELS 6 Xposition Yposition Zposition Zrotation Xrotation Yrotation
                    JOINT lRing2
                    {
                      OFFSET 3.7921 -1.552 1.4806
                      CHANNELS 6 Xposition Yposition Zposition Zrotation Xrotation Yrotation
                      JOINT lRing2_End
                      {
                        OFFSET 1.4655 -1.808 0.9609
                        CHANNELS 6 Xposition Yposition Zposition Zrotation Xrotation Yrotation
                        End Site
                        {
                          OFFSET 0.0147 -0.0181 0.0096
                        }
                      }
                    }
                  }
                  JOINT lPinky1
                  {
                    OFFSET 4.9141 -1.269 0.3591
                    CHANNELS 6 Xposition Yposition Zposition Zrotation Xrotation Yrotation
                    JOINT lPinky2
                    {
                      OFFSET 3.1477 -1.685 0.8462
                      CHANNELS 6 Xposition Yposition Zposition Zrotation Xrotation Yrotation
                      JOINT lPinky2_End
                      {
                        OFFSET 0.8055 -1.585 0.7955
                        CHANNELS 6 Xposition Yposition Zposition Zrotation Xrotation Yrotation
                        End Site
                        {
                          OFFSET 0.0081 -0.0158 0.008
                        }
                      }
                    }
                  }
                }
              }
            }
          }
        }
        JOINT rCollar
        {
          OFFSET -1.7069 20.075 5.0056
          CHANNELS 6 Xposition Yposition Zposition Zrotation Xrotation Yrotation
          JOINT rShldr
          {
            OFFSET -13.6458 -0.047 -4.849
            CHANNELS 6 Xposition Yposition Zposition Zrotation Xrotation Yrotation
            JOINT rForeArm
            {
              OFFSET -28.3255 -0.9759 2.2888
              CHANNELS 6 Xposition Yposition Zposition Zrotation Xrotation Yrotation
              JOINT rHand
              {
                OFFSET -22.1583 -0.53 10.8316
                CHANNELS 6 Xposition Yposition Zposition Zrotation Xrotation Yrotation
                JOINT rThumb1
                {
                  OFFSET -0.786 0.112 2.5817
                  CHANNELS 6 Xposition Yposition Zposition Zrotation Xrotation Yrotation
                  JOINT rThumb2
                  {
                    OFFSET -0.3601 -0.878 4.2331
                    CHANNELS 6 Xposition Yposition Zposition Zrotation Xrotation Yrotation
                    JOINT rThumb2_End
                    {
                      OFFSET -1.8127 -1.216 2.2227
                      CHANNELS 6 Xposition Yposition Zposition Zrotation Xrotation Yrotation
                      End Site
                      {
                        OFFSET -0.0181 -0.0122 0.0222
                      }
                    }
                  }
                }
                JOINT rCarpal1
                {
                  OFFSET -0.9571 1.114 1.7695
                  CHANNELS 6 Xposition Yposition Zposition Zrotation Xrotation Yrotation
                  JOINT rIndex1
                  {
                    OFFSET -4.1246 0.487 4.1451
                    CHANNELS 6 Xposition Yposition Zposition Zrotation Xrotation Yrotation
                    JOINT rIndex2
                    {
                      OFFSET -3.4052 -1.454 2.7682
                      CHANNELS 6 Xposition Yposition Zposition Zrotation Xrotation Yrotation
                      JOINT rIndex2_End
                      {
                        OFFSET -1.4531 -1.795 1.2713
                        CHANNELS 6 Xposition Yposition Zposition Zrotation Xrotation Yrotation
                        End Site
                        {
                          OFFSET -0.0145 -0.018 0.0127
                        }
                      }
                    }
                  }
                  JOINT rMid1
                  {
                    OFFSET -5.6954 0.21 2.1184
                    CHANNELS 6 Xposition Yposition Zposition Zrotation Xrotation Yrotation
                    JOINT rMid2
                    {
                      OFFSET -3.9766 -1.54 2.3863
                      CHANNELS 6 Xposition Yposition Zposition Zrotation Xrotation Yrotation
                      JOINT rMid2_End
                      {
                        OFFSET -1.4042 -1.926 1.125
                        CHANNELS 6 Xposition Yposition Zposition Zrotation Xrotation Yrotation
                        End Site
                        {
                          OFFSET -0.014 -0.0193 0.0113
                        }
                      }
                    }
                  }
                }
                JOINT rCarpal2
                {
                  OFFSET -2.0956 0.66 -0.3894
                  CHANNELS 6 Xposition Yposition Zposition Zrotation Xrotation Yrotation
                  JOINT rRing1
                  {
                    OFFSET -5.0395 -0.09 2.4971
                    CHANNELS 6 Xposition Yposition Zposition Zrotation Xrotation Yrotation
                    JOINT rRing2
                    {
                      OFFSET -3.7921 -1.552 1.4806
                      CHANNELS 6 Xposition Yposition Zposition Zrotation Xrotation Yrotation
                      JOINT rRing2_End
                      {
                        OFFSET -1.4655 -1.808 0.9609
                        CHANNELS 6 Xposition Yposition Zposition Zrotation Xrotation Yrotation
                        End Site
                        {
                          OFFSET -0.0147 -0.0181 0.0096
                        }
                      }
                    }
                  }
                  JOINT rPinky1
                  {
                    OFFSET -4.9141 -1.269 0.3592
                    CHANNELS 6 Xposition Yposition Zposition Zrotation Xrotation Yrotation
                    JOINT rPinky2
                    {
                      OFFSET -3.1477 -1.685 0.8462
                      CHANNELS 6 Xposition Yposition Zposition Zrotation Xrotation Yrotation
                      JOINT rPinky2_End
                      {
                        OFFSET -0.8055 -1.585 0.7955
                        CHANNELS 6 Xposition Yposition Zposition Zrotation Xrotation Yrotation
                        End Site
                        {
                          OFFSET -0.0081 -0.0158 0.008
                        }
                      }
                    }
                  }
                }
              }
            }
          }
        }
      }
    }
  }
  JOINT lThigh
  {
    OFFSET 8.367 -8.2066 0.5982
    CHANNELS 6 Xposition Yposition Zposition Zrotation Xrotation Yrotation
    JOINT lShin
    {
      OFFSET 2.1923 -43.463 -0.4932
      CHANNELS 6 Xposition Yposition Zposition Zrotation Xrotation Yrotation
      JOINT lFoot
      {
        OFFSET 0.7333 -45.8593 -2.6451
        CHANNELS 6 Xposition Yposition Zposition Zrotation Xrotation Yrotation
        End Site
        {
          OFFSET 2.6618 -4.2699 12.3931
        }
      }
    }
  }
  JOINT rThigh
  {
    OFFSET -8.367 -8.2066 0.5982
    CHANNELS 6 Xposition Yposition Zposition Zrotation Xrotation Yrotation
    JOINT rShin
    {
      OFFSET -2.1923 -43.463 -0.4931
      CHANNELS 6 Xposition Yposition Zposition Zrotation Xrotation Yrotation
      JOINT rFoot
      {
        OFFSET -0.7333 -45.8593 -2.6451
        CHANNELS 6 Xposition Yposition Zposition Zrotation Xrotation Yrotation
        End Site
        {
          OFFSET -2.6618 -4.2699 12.3931
        }
      }
    }
  }
}
MOTION
Frames:	4
Frame Time:	0.0333333
4.43922 47.8993 -8.73713 -9.29611e-015 -17.9965 180 0 -1.186 -1.5018 -0.237503 8.03009 -0.162183 0 9.964 0.2134 -0.458652 16.0608 -0.294772 -8.88178e-016 13.134 -3.2573 -0.458651 16.0608 -0.294772 0 20.686 -1.6905 1.90014e-006 -7.50756 -6.75247e-008 1.77636e-015 7.238 -0.1237 9.12715e-008 -8.44536 -2.91913e-007 1.7069 20.075 5.0056 12.5509 -26.0212 7.42952 13.6458 -0.047 -4.849 -73.9624 6.25861 -17.4937 28.3255 -0.9759 2.2888 -16.2313 11.4823 -39.9331 22.1583 -0.53 10.8316 -3.30305 -3.30381 0.799766 0.786 0.112 2.5817 3.97569e-015 0 -3.18055e-015 0.3601 -0.878 4.2331 -3.53113e-031 -3.18055e-015 -6.36111e-015 1.8127 -1.216 2.2227 1.59028e-015 -3.18055e-015 -0 0.9571 1.114 1.7695 3.97569e-015 0 -3.18055e-015 4.1246 0.487 4.1451 -2.38542e-015 -6.36111e-015 -0 3.4052 -1.454 2.7682 1.59028e-015 -3.18055e-015 -3.18055e-015 1.4531 -1.795 1.2713 -1.76556e-031 -3.18055e-015 -3.18055e-015 5.6954 0.21 2.1184 -2.38542e-015 -6.36111e-015 -0 3.9766 -1.54 2.3863 1.59028e-015 -3.18055e-015 -3.18055e-015 1.4042 -1.926 1.125 -1.76556e-031 -3.18055e-015 -3.18055e-015 2.0956 0.66 -0.3894 3.97569e-015 0 -3.18055e-015 5.0395 -0.09 2.4971 -2.38542e-015 -6.36111e-015 -0 3.7921 -1.552 1.4806 1.59028e-015 -3.18055e-015 -3.18055e-015 1.4655 -1.808 0.9609 -1.76556e-031 -3.18055e-015 -3.18055e-015 4.9141 -1.269 0.3591 -2.38542e-015 -6.36111e-015 -0 3.1477 -1.685 0.8462 1.59028e-015 -3.18055e-015 -3.18055e-015 0.8055 -1.585 0.7955 -1.76556e-031 -3.18055e-015 -3.18055e-015 -1.7069 20.075 5.0056 -3.96245 -28.6352 4.36826 -13.6458 -0.047 -4.849 68.3048 3.11947 3.0531 -28.3255 -0.9759 2.2888 14.304 15.6198 48.423 -22.1583 -0.53 10.8316 -2.55265 -4.15224 -7.61674 -0.786 0.112 2.5817 3.62365e-007 1.1452e-006 -1.20785e-006 -0.3601 -0.878 4.2331 -7.95139e-016 6.36111e-015 -0 -1.8127 -1.216 2.2227 3.62365e-007 1.1452e-006 -1.20785e-006 -0.9571 1.114 1.7695 0 0 -1.59028e-015 -4.1246 0.487 4.1451 3.62365e-007 1.1452e-006 -1.20785e-006 -3.4052 -1.454 2.7682 7.95139e-016 9.54166e-015 3.18055e-015 -1.4531 -1.795 1.2713 3.62365e-007 1.1452e-006 -1.20785e-006 -5.6954 0.21 2.1184 3.62365e-007 1.1452e-006 -1.20785e-006 -3.9766 -1.54 2.3863 7.95139e-016 9.54166e-015 3.18055e-015 -1.4042 -1.926 1.125 3.62365e-007 1.1452e-006 -1.20785e-006 -2.0956 0.66 -0.3894 0 0 -1.59028e-015 -5.0395 -0.09 2.4971 3.62365e-007 1.1452e-006 -1.20785e-006 -3.7921 -1.552 1.4806 7.95139e-016 9.54166e-015 3.18055e-015 -1.4655 -1.808 0.9609 3.62365e-007 1.1452e-006 -1.20785e-006 -4.9141 -1.269 0.3592 3.62365e-007 1.1452e-006 -1.20785e-006 -3.1477 -1.685 0.8462 7.95139e-016 9.54166e-015 3.18055e-015 -0.8055 -1.585 0.7955 3.62365e-007 1.1452e-006 -1.20785e-006 8.367 -8.2066 0.5982 107.85 -46.5119 120.147 2.1923 -43.463 -0.4932 14.5463 70.4307 -2.33074 0.7333 -45.8593 -2.6451 -15.955 24.1508 15.1356 -8.367 -8.2066 0.5982 -25.2178 -23.4288 -14.298 -2.1923 -43.463 -0.4931 -118.301 83.9373 105.552 -0.7333 -45.8593 -2.6451 3.33076 42.0522 -4.50199 
4.4207 47.8998 -9.31896 -9.29611e-015 -17.9965 180 0 -1.186 -1.5018 -0.237756 7.92356 -0.162097 -8.88178e-016 9.964 0.2134 -0.459318 15.8477 -0.294918 -8.88178e-016 13.134 -3.2573 -0.459318 15.8477 -0.294918 8.88178e-016 20.686 -1.6905 7.64947e-007 -7.01231 -1.0139e-006 0 7.238 -0.1237 2.81285e-007 -7.88846 5.98215e-008 1.7069 20.075 5.0056 12.2616 -24.7185 7.29531 13.6458 -0.047 -4.849 -73.9624 6.25861 -17.4938 28.3255 -0.9759 2.2888 -16.2313 11.4823 -39.9331 22.1583 -0.53 10.8316 -3.02005 -2.89333 0.12886 0.786 0.112 2.5817 -7.95139e-016 -6.36111e-015 -0 0.3601 -0.878 4.2331 3.18055e-015 -3.18055e-015 -6.36111e-015 1.8127 -1.216 2.2227 -2.38542e-015 -3.18055e-015 -3.18055e-015 0.9571 1.114 1.7695 -7.95139e-016 -3.18055e-015 -0 4.1246 0.487 4.1451 7.95139e-016 -3.18055e-015 3.18055e-015 3.4052 -1.454 2.7682 -3.97569e-015 -3.18055e-015 3.18055e-015 1.4531 -1.795 1.2713 -3.97569e-015 3.18055e-015 -9.54166e-015 5.6954 0.21 2.1184 7.95139e-016 -3.18055e-015 3.18055e-015 3.9766 -1.54 2.3863 -3.97569e-015 -3.18055e-015 3.18055e-015 1.4042 -1.926 1.125 -3.97569e-015 3.18055e-015 -9.54166e-015 2.0956 0.66 -0.3894 -7.95139e-016 -3.18055e-015 -0 5.0395 -0.09 2.4971 7.95139e-016 -3.18055e-015 3.18055e-015 3.7921 -1.552 1.4806 -3.97569e-015 -3.18055e-015 3.18055e-015 1.4655 -1.808 0.9609 -3.97569e-015 3.18055e-015 -9.54166e-015 4.9141 -1.269 0.3591 7.95139e-016 -3.18055e-015 3.18055e-015 3.1477 -1.685 0.8462 -3.97569e-015 -3.18055e-015 3.18055e-015 0.8055 -1.585 0.7955 -3.97569e-015 3.18055e-015 -9.54166e-015 -1.7069 20.075 5.0056 -3.69699 -27.364 4.40861 -13.6458 -0.047 -4.849 68.3048 3.11947 3.0531 -28.3255 -0.9759 2.2888 14.304 15.6198 48.423 -22.1583 -0.53 10.8316 -2.74284 -3.71322 -6.74222 -0.786 0.112 2.5817 -5.02719e-006 -6.15747e-007 -1.91857e-006 -0.3601 -0.878 4.2331 -1.59028e-015 -3.18055e-015 -1.59028e-015 -1.8127 -1.216 2.2227 7.95139e-016 0 -1.59028e-015 -0.9571 1.114 1.7695 1.59028e-015 -9.54166e-015 -3.18055e-015 -4.1246 0.487 4.1451 -5.02719e-006 -6.15747e-007 -1.91857e-006 -3.4052 -1.454 2.7682 -2.64834e-031 -3.18055e-015 -4.77083e-015 -1.4531 -1.795 1.2713 7.95139e-016 -6.36111e-015 -1.59028e-015 -5.6954 0.21 2.1184 -5.02719e-006 -6.15747e-007 -1.91857e-006 -3.9766 -1.54 2.3863 -2.64834e-031 -3.18055e-015 -4.77083e-015 -1.4042 -1.926 1.125 7.95139e-016 -6.36111e-015 -1.59028e-015 -2.0956 0.66 -0.3894 1.59028e-015 -9.54166e-015 -3.18055e-015 -5.0395 -0.09 2.4971 -5.02719e-006 -6.15747e-007 -1.91857e-006 -3.7921 -1.552 1.4806 -2.64834e-031 -3.18055e-015 -4.77083e-015 -1.4655 -1.808 0.9609 7.95139e-016 -6.36111e-015 -1.59028e-015 -4.9141 -1.269 0.3592 -5.02719e-006 -6.15747e-007 -1.91857e-006 -3.1477 -1.685 0.8462 -2.64834e-031 -3.18055e-015 -4.77083e-015 -0.8055 -1.585 0.7955 7.95139e-016 -6.36111e-015 -1.59028e-015 8.367 -8.2066 0.5982 107.842 -46.2864 119.974 2.1923 -43.463 -0.4932 15.2837 71.0423 -3.02993 0.7333 -45.8593 -2.6451 -16.2328 23.7291 14.8242 -8.367 -8.2066 0.5982 -25.1715 -22.8732 -13.9902 -2.1923 -43.463 -0.4931 -113.152 84.1737 100.754 -0.7333 -45.8593 -2.6451 3.43653 42.0972 -4.20226 
4.40196 47.8996 -9.90071 -9.29611e-015 -17.9965 180 0 -1.186 -1.5018 -0.238 7.81693 -0.162005 -8.88178e-016 9.964 0.2134 -0.459966 15.6345 -0.295056 0 13.134 -3.2573 -0.459966 15.6345 -0.295056 8.88178e-016 20.686 -1.6905 -3.35337e-006 -6.51696 1.01627e-006 -8.88178e-016 7.238 -0.1237 2.52952e-007 -7.33141 2.13408e-007 1.7069 20.075 5.0056 11.9781 -23.4133 7.16945 13.6458 -0.047 -4.849 -73.9624 6.2586 -17.4938 28.3255 -0.9759 2.2888 -16.2313 11.4823 -39.9331 22.1583 -0.53 10.8316 -2.73222 -2.48595 -0.544247 0.786 0.112 2.5817 4.24714e-006 -3.26379e-006 4.39551e-006 0.3601 -0.878 4.2331 -7.95139e-016 -3.18055e-015 -3.18055e-015 1.8127 -1.216 2.2227 -4.24714e-006 3.26379e-006 -4.39551e-006 0.9571 1.114 1.7695 -3.18055e-015 -3.18055e-015 9.54166e-015 4.1246 0.487 4.1451 4.24714e-006 -3.26379e-006 4.39551e-006 3.4052 -1.454 2.7682 7.95139e-016 -6.36111e-015 -3.18055e-015 1.4531 -1.795 1.2713 -4.24714e-006 3.26379e-006 -4.39551e-006 5.6954 0.21 2.1184 4.24714e-006 -3.26379e-006 4.39551e-006 3.9766 -1.54 2.3863 7.95139e-016 -6.36111e-015 -3.18055e-015 1.4042 -1.926 1.125 -4.24714e-006 3.26379e-006 -4.39551e-006 2.0956 0.66 -0.3894 -3.18055e-015 -3.18055e-015 9.54166e-015 5.0395 -0.09 2.4971 4.24714e-006 -3.26379e-006 4.39551e-006 3.7921 -1.552 1.4806 7.95139e-016 -6.36111e-015 -3.18055e-015 1.4655 -1.808 0.9609 -4.24714e-006 3.26379e-006 -4.39551e-006 4.9141 -1.269 0.3591 4.24714e-006 -3.26379e-006 4.39551e-006 3.1477 -1.685 0.8462 7.95139e-016 -6.36111e-015 -3.18055e-015 0.8055 -1.585 0.7955 -4.24714e-006 3.26379e-006 -4.39551e-006 -1.7069 20.075 5.0056 -3.4351 -26.0909 4.442 -13.6458 -0.047 -4.849 68.3048 3.11947 3.05311 -28.3255 -0.9759 2.2888 14.304 15.6198 48.423 -22.1583 -0.53 10.8316 -2.93975 -3.27677 -5.86588 -0.786 0.112 2.5817 1.59028e-015 -6.36111e-015 3.18055e-015 -0.3601 -0.878 4.2331 7.95139e-016 -6.36111e-015 3.18055e-015 -1.8127 -1.216 2.2227 1.59028e-015 -3.18055e-015 -0 -0.9571 1.114 1.7695 7.95139e-016 -6.36111e-015 -0 -4.1246 0.487 4.1451 -2.38542e-015 -6.36111e-015 6.36111e-015 -3.4052 -1.454 2.7682 1.59028e-015 -3.18055e-015 1.59028e-015 -1.4531 -1.795 1.2713 -0 0 3.18055e-015 -5.6954 0.21 2.1184 -2.38542e-015 -6.36111e-015 6.36111e-015 -3.9766 -1.54 2.3863 1.59028e-015 -3.18055e-015 1.59028e-015 -1.4042 -1.926 1.125 -0 0 3.18055e-015 -2.0956 0.66 -0.3894 7.95139e-016 -6.36111e-015 -0 -5.0395 -0.09 2.4971 -2.38542e-015 -6.36111e-015 6.36111e-015 -3.7921 -1.552 1.4806 1.59028e-015 -3.18055e-015 1.59028e-015 -1.4655 -1.808 0.9609 -0 0 3.18055e-015 -4.9141 -1.269 0.3592 -2.38542e-015 -6.36111e-015 6.36111e-015 -3.1477 -1.685 0.8462 1.59028e-015 -3.18055e-015 1.59028e-015 -0.8055 -1.585 0.7955 -0 0 3.18055e-015 8.367 -8.2066 0.5982 107.834 -46.061 119.802 2.1923 -43.463 -0.4932 16.0689 71.6501 -3.77667 0.7333 -45.8593 -2.6451 -16.5121 23.3091 14.5116 -8.367 -8.2066 0.5982 -25.1289 -22.3177 -13.6848 -2.1923 -43.463 -0.4931 -107.616 84.3626 95.5698 -0.7333 -45.8593 -2.6451 3.5411 42.1432 -3.90218 
4.38301 47.8986 -10.4824 -9.29611e-015 -17.9965 180 0 -1.186 -1.5018 -0.238234 7.71027 -0.161907 0 9.964 0.2134 -0.460596 15.4211 -0.295185 0 13.134 -3.2573 -0.460597 15.4211 -0.295185 -8.88178e-016 20.686 -1.6905 -2.83681e-005 -6.02051 -2.87166e-006 -8.88178e-016 7.238 -0.1237 -1.30234e-007 -6.77425 -1.64729e-007 1.7069 20.075 5.0056 11.7 -22.1059 7.05162 13.6458 -0.047 -4.849 -73.9624 6.25861 -17.4938 28.3255 -0.9759 2.2888 -16.2313 11.4823 -39.9331 22.1583 -0.53 10.8316 -2.43955 -2.08178 -1.21955 0.786 0.112 2.5817 -2.38542e-015 -3.18055e-015 6.36111e-015 0.3601 -0.878 4.2331 -1.59028e-015 0 6.36111e-015 1.8127 -1.216 2.2227 -1.59028e-015 0 3.18055e-015 0.9571 1.114 1.7695 -3.18055e-015 -3.18055e-015 -0 4.1246 0.487 4.1451 -2.38542e-015 0 3.18055e-015 3.4052 -1.454 2.7682 7.95139e-016 0 -3.18055e-015 1.4531 -1.795 1.2713 -1.59028e-015 0 -3.18055e-015 5.6954 0.21 2.1184 -2.38542e-015 0 3.18055e-015 3.9766 -1.54 2.3863 7.95139e-016 0 -3.18055e-015 1.4042 -1.926 1.125 -1.59028e-015 0 -3.18055e-015 2.0956 0.66 -0.3894 -3.18055e-015 -3.18055e-015 -0 5.0395 -0.09 2.4971 -2.38542e-015 0 3.18055e-015 3.7921 -1.552 1.4806 7.95139e-016 0 -3.18055e-015 1.4655 -1.808 0.9609 -1.59028e-015 0 -3.18055e-015 4.9141 -1.269 0.3591 -2.38542e-015 0 3.18055e-015 3.1477 -1.685 0.8462 7.95139e-016 0 -3.18055e-015 0.8055 -1.585 0.7955 -1.59028e-015 0 -3.18055e-015 -1.7069 20.075 5.0056 -3.1765 -24.8163 4.46865 -13.6458 -0.047 -4.849 68.3048 3.11947 3.05311 -28.3255 -0.9759 2.2888 14.304 15.6198 48.423 -22.1583 -0.53 10.8316 -3.14338 -2.84307 -4.98779 -0.786 0.112 2.5817 -1.86023e-007 -5.70259e-007 6.04919e-007 -0.3601 -0.878 4.2331 -3.72047e-007 -1.14052e-006 1.20984e-006 -1.8127 -1.216 2.2227 7.95139e-016 2.22639e-014 1.59028e-015 -0.9571 1.114 1.7695 -1.59028e-015 0 -1.59028e-015 -4.1246 0.487 4.1451 -1.86023e-007 -5.70259e-007 6.04919e-007 -3.4052 -1.454 2.7682 -3.72047e-007 -1.14052e-006 1.20984e-006 -1.4531 -1.795 1.2713 -5.29669e-031 1.90833e-014 1.59028e-015 -5.6954 0.21 2.1184 -1.86023e-007 -5.70259e-007 6.04919e-007 -3.9766 -1.54 2.3863 -3.72047e-007 -1.14052e-006 1.20984e-006 -1.4042 -1.926 1.125 -5.29669e-031 1.90833e-014 1.59028e-015 -2.0956 0.66 -0.3894 -1.59028e-015 0 -1.59028e-015 -5.0395 -0.09 2.4971 -1.86023e-007 -5.70259e-007 6.04919e-007 -3.7921 -1.552 1.4806 -3.72047e-007 -1.14052e-006 1.20984e-006 -1.4655 -1.808 0.9609 -5.29669e-031 1.90833e-014 1.59028e-015 -4.9141 -1.269 0.3592 -1.86023e-007 -5.70259e-007 6.04919e-007 -3.1477 -1.685 0.8462 -3.72047e-007 -1.14052e-006 1.20984e-006 -0.8055 -1.585 0.7955 -5.29669e-031 1.90833e-014 1.59028e-015 8.367 -8.2066 0.5982 107.828 -45.8356 119.63 2.1923 -43.463 -0.4932 16.906 72.2536 -4.57524 0.7333 -45.8593 -2.6451 -16.793 22.891 14.1977 -8.367 -8.2066 0.5982 -25.0901 -21.7623 -13.3817 -2.1923 -43.463 -0.4931 -101.757 84.4988 90.0619 -0.7333 -45.8593 -2.6451 3.64465 42.1898 -3.60182 
